<?xml version="1.0" encoding="iso-8859-1"?>
<!-- Generator: Adobe Illustrator 19.0.0, SVG Export Plug-In . SVG Version: 6.00 Build 0)  -->
<svg version="1.1" id="Layer_1" xmlns="http://www.w3.org/2000/svg" xmlns:xlink="http://www.w3.org/1999/xlink" x="0px" y="0px"
	 viewBox="0 0 300.16 300.16" style="enable-background:new 0 0 300.16 300.16;" xml:space="preserve">
<g>
	<g>
		<path style="fill:#333333;" d="M285.723,154.921h-9.775c-0.218-18.615-9.184-35.893-24.202-46.825V79.881
			c0-9.344-7.601-16.944-16.944-16.944c-20.043,0-37.012,14.558-40.463,33.889h-15.211v9.683h24.018l0.3-4.522
			c1.089-16.465,14.863-29.367,31.357-29.367c4.004,0,7.262,3.258,7.262,7.262v33.347l2.169,1.433
			c13.798,9.145,22.038,24.453,22.038,40.962v8.981h19.452c2.624,0,4.754,2.13,4.754,4.754v48.587c0,2.624-2.13,4.754-4.754,4.754
			h-20.45l-1.022,3.476c-4.725,16.083-17.148,28.51-33.235,33.235l-3.476,1.022v22.754c0,1.351-1.099,2.45-2.45,2.45h-48.355
			c-1.351,0-2.45-1.099-2.45-2.45V261.43h-48.413v21.757c0,1.351-1.099,2.45-2.45,2.45H75.069c-1.351,0-2.45-1.099-2.45-2.45
			v-25.969l-2.6-1.36c-16.315-8.511-26.448-25.194-26.448-43.543v-56.691c0-24.042,17.172-44.404,40.836-48.418l-1.622-9.552
			c-28.331,4.807-48.897,29.188-48.897,57.97v13.822h-5.732c0.542-1.52,0.891-3.137,0.891-4.841c0-8.007-6.516-14.524-14.524-14.524
			c-1.704,0-3.321,0.349-4.841,0.891v-15.415H0v29.048c0,8.007,6.516,14.524,14.524,14.524h19.365v33.187
			c0,20.972,11.057,40.129,29.048,50.683v20.183c0,6.696,5.442,12.137,12.132,12.137h48.355c6.691,0,12.132-5.442,12.132-12.132
			v-12.074h29.048v12.074c0,6.691,5.442,12.132,12.132,12.132h48.355c6.691,0,12.132-5.442,12.132-12.132v-15.628
			c16.422-5.94,29.241-18.76,35.182-35.182h13.318c7.959,0.005,14.437-6.473,14.437-14.432v-48.587
			C300.16,161.399,293.682,154.921,285.723,154.921z M9.683,164.604c0-2.668,2.174-4.841,4.841-4.841s4.841,2.174,4.841,4.841
			s-2.174,4.841-4.841,4.841S9.683,167.271,9.683,164.604z"/>
		<path style="fill:#F9BA48;" d="M130.715,130.715c-34.702,0-62.937-28.234-62.937-62.937S96.012,4.841,130.715,4.841
			s62.937,28.234,62.937,62.937S165.417,130.715,130.715,130.715z"/>
		<rect x="91.984" y="125.873" style="fill:#333333;" width="77.461" height="9.683"/>
		<path style="fill:#333333;" d="M159.762,58.095v-7.262c0-12.011-9.775-21.786-21.786-21.786h-2.421v-9.683h-9.683v9.683h-2.421
			c-12.011,0-21.786,9.775-21.786,21.786s9.775,21.786,21.786,21.786h14.524c6.671,0,12.103,5.432,12.103,12.103
			s-5.432,12.103-12.103,12.103h-14.524c-6.671,0-12.103-5.432-12.103-12.103V77.46h-9.683v7.262
			c0,12.011,9.775,21.786,21.786,21.786h2.421v9.683h9.683v-9.683h2.421c12.011,0,21.786-9.775,21.786-21.786
			s-9.775-21.786-21.786-21.786h-14.524c-6.671,0-12.103-5.432-12.103-12.103s5.432-12.103,12.103-12.103h14.524
			c6.671,0,12.103,5.432,12.103,12.103v7.262H159.762z"/>
		<path style="fill:#333333;" d="M202.569,147.853c0.048-0.077,4.899-7.456,15.289-7.456c10.196,0,15.11,7.184,15.289,7.456
			c0.925,1.443,2.488,2.227,4.081,2.227c0.896,0,1.801-0.247,2.609-0.765c2.251-1.443,2.905-4.439,1.462-6.691
			c-0.315-0.489-7.824-11.91-23.441-11.91s-23.127,11.421-23.441,11.91c-1.443,2.251-0.789,5.243,1.462,6.691
			C198.125,150.753,201.122,150.104,202.569,147.853z"/>
	</g>
</g>
<g>
</g>
<g>
</g>
<g>
</g>
<g>
</g>
<g>
</g>
<g>
</g>
<g>
</g>
<g>
</g>
<g>
</g>
<g>
</g>
<g>
</g>
<g>
</g>
<g>
</g>
<g>
</g>
<g>
</g>
</svg>
