<?xml version="1.0" encoding="iso-8859-1"?>
<!-- Generator: Adobe Illustrator 19.0.0, SVG Export Plug-In . SVG Version: 6.00 Build 0)  -->
<svg version="1.1" id="Layer_1" xmlns="http://www.w3.org/2000/svg" xmlns:xlink="http://www.w3.org/1999/xlink" x="0px" y="0px"
	 viewBox="0 0 512 512" style="enable-background:new 0 0 512 512;" xml:space="preserve">
<path style="fill:#FFA800;" d="M418.133,503.467H93.867c-46.933,0-85.333-38.4-85.333-85.333V93.867
	c0-46.933,38.4-85.333,85.333-85.333h324.267c46.933,0,85.333,38.4,85.333,85.333v324.267
	C503.467,465.067,465.067,503.467,418.133,503.467"/>
<path style="fill:#FFFFFF;" d="M162.133,503.467H93.867c-46.933,0-85.333-38.4-85.333-85.333V93.867
	c0-46.933,38.4-85.333,85.333-85.333h68.267c46.933,0,85.333,38.4,85.333,85.333v324.267
	C247.467,465.067,209.067,503.467,162.133,503.467"/>
<path style="fill:#FFE100;" d="M392.533,494.933H119.467c-46.933,0-85.333-38.4-85.333-85.333V85.333
	C34.133,38.4,72.533,0,119.467,0h273.067c46.933,0,85.333,38.4,85.333,85.333V409.6
	C477.867,456.533,439.467,494.933,392.533,494.933"/>
<g>
	<path style="fill:#FDCC00;" d="M34.133,256L179.2,317.44c19.627,7.68,29.867,27.307,23.04,45.227l0,0
		c-6.827,17.92-27.307,26.453-46.933,19.627l-121.173-48.64V256z"/>
	<path style="fill:#FDCC00;" d="M187.733,273.067c-23.04,0-42.667,7.68-58.88,23.04L179.2,317.44
		c19.627,7.68,29.867,27.307,23.04,45.227l0,0c-6.827,17.92-27.307,26.453-46.933,19.627L102.4,360.96
		c2.56,44.373,40.107,82.773,85.333,82.773c46.933,0,85.333-38.4,85.333-85.333S234.667,273.067,187.733,273.067"/>
</g>
<path style="fill:#FFE100;" d="M187.733,307.2c-7.68,0-15.36,1.707-22.187,5.12l12.8,5.973c19.627,7.68,29.867,27.307,23.04,45.227
	l0,0c-6.827,17.92-27.307,26.453-46.933,19.627l-14.507-5.973c7.68,18.773,25.6,33.28,46.933,33.28c28.16,0,51.2-23.04,51.2-51.2
	C238.08,331.093,215.893,307.2,187.733,307.2"/>
<path style="fill:#FDCC00;" d="M175.787,273.92c4.267-0.853,7.68-0.853,11.947-0.853c46.933,0,85.333,38.4,85.333,85.333
	c0,4.267,0,7.68-0.853,11.947l116.907-81.92c-6.827,0.853-14.507,1.707-22.187,1.707C305.493,290.133,256,240.64,256,179.2
	c0-9.387,1.707-18.773,3.413-27.307L175.787,273.92z"/>
<path style="fill:#FFA800;" d="M366.933,290.133C305.493,290.133,256,240.64,256,179.2S305.493,68.267,366.933,68.267
	S477.867,117.76,477.867,179.2S428.373,290.133,366.933,290.133"/>
<path style="fill:#FDCC00;" d="M354.133,290.133C300.373,290.133,256,240.64,256,179.2s44.373-110.933,98.133-110.933
	s98.133,49.493,98.133,110.933S407.893,290.133,354.133,290.133"/>
<path style="fill:#FFA800;" d="M366.933,238.933c-33.28,0-59.733-26.453-59.733-59.733s26.453-59.733,59.733-59.733
	s59.733,26.453,59.733,59.733S400.213,238.933,366.933,238.933"/>
<path style="fill:#FFE100;" d="M341.333,238.933c12.8,0-34.133-26.453-34.133-59.733s17.92-59.733,34.133-59.733
	c33.28,0,59.733,26.453,59.733,59.733S374.613,238.933,341.333,238.933"/>
<path d="M366.933,298.667c-65.707,0-119.467-53.76-119.467-119.467s53.76-119.467,119.467-119.467S486.4,113.493,486.4,179.2
	S432.64,298.667,366.933,298.667z M366.933,76.8c-56.32,0-102.4,46.08-102.4,102.4s46.08,102.4,102.4,102.4s102.4-46.08,102.4-102.4
	S423.253,76.8,366.933,76.8z"/>
<path d="M366.933,247.467c-37.547,0-68.267-30.72-68.267-68.267s30.72-68.267,68.267-68.267S435.2,141.653,435.2,179.2
	S404.48,247.467,366.933,247.467z M366.933,128c-28.16,0-51.2,23.04-51.2,51.2s23.04,51.2,51.2,51.2s51.2-23.04,51.2-51.2
	S395.093,128,366.933,128z"/>
<path d="M261.12,388.267l2.56-19.627c0.853-3.413,0.853-6.827,0.853-10.24c0-42.667-34.133-76.8-76.8-76.8
	c-3.413,0-6.827,0-10.24,0.853l-18.773,2.56l94.72-138.24l15.36,6.827c-2.56,8.533-3.413,17.067-3.413,25.6
	c0,56.32,46.08,102.4,102.4,102.4c6.827,0,13.653-0.853,20.48-1.707l6.827,15.36L261.12,388.267z M192.853,264.533
	c47.787,2.56,86.187,40.96,88.747,88.747l77.653-54.613c-60.587-4.267-109.227-53.76-111.787-114.347L192.853,264.533z"/>
<path d="M168.96,393.387c-5.12,0-11.093-0.853-16.213-2.56L25.6,339.627V243.2l157.013,66.56c23.04,8.533,35.84,34.133,28.16,56.32
	C203.947,382.293,187.733,393.387,168.96,393.387z M42.667,327.68l116.053,46.08c14.507,5.12,30.72-0.853,35.84-14.507
	c5.12-13.653-3.413-29.013-17.92-34.133L42.667,268.8V327.68z"/>
<path d="M187.733,418.133c-24.747,0-46.08-15.36-55.467-38.4l-6.827-17.92l33.28,12.8c14.507,5.12,30.72-0.853,35.84-14.507
	c5.12-13.653-3.413-29.013-17.92-34.133l-31.573-13.653l17.067-8.533c7.68-3.413,16.213-5.973,25.6-5.973
	c33.28,0,59.733,26.453,59.733,59.733S221.013,418.133,187.733,418.133z M162.987,392.533c6.827,5.12,15.36,8.533,24.747,8.533
	c23.893,0,42.667-18.773,42.667-42.667c0-21.333-15.36-39.253-35.84-41.813c15.36,11.947,22.187,31.573,16.213,49.493
	C203.947,384.853,183.467,395.093,162.987,392.533z"/>
<path d="M187.733,452.267c-48.64,0-90.453-40.96-93.867-90.453l-0.853-13.653l64.853,26.453c14.507,5.12,30.72-0.853,35.84-14.507
	c5.12-13.653-3.413-29.013-17.92-34.133l-62.293-26.453l9.387-8.533c17.067-17.067,39.253-25.6,64.853-25.6
	c52.053,0,93.867,41.813,93.867,93.867S239.787,452.267,187.733,452.267z M113.493,374.613c8.533,34.133,39.253,60.587,74.24,60.587
	c42.667,0,76.8-34.133,76.8-76.8s-34.133-76.8-76.8-76.8c-16.213,0-30.72,4.267-42.667,11.947l36.693,15.36
	c23.04,8.533,35.84,34.133,28.16,56.32c-7.68,22.187-34.133,33.28-58.027,24.747L113.493,374.613z"/>
<path d="M418.133,512H93.867C41.813,512,0,470.187,0,418.133V204.8c0-5.12,3.413-8.533,8.533-8.533s8.533,3.413,8.533,8.533v213.333
	c0,42.667,34.133,76.8,76.8,76.8h324.267c42.667,0,76.8-34.133,76.8-76.8V93.867c0-42.667-34.133-76.8-76.8-76.8H93.867
	c-42.667,0-76.8,34.133-76.8,76.8v42.667c0,5.12-3.413,8.533-8.533,8.533S0,141.653,0,136.533V93.867C0,41.813,41.813,0,93.867,0
	h324.267C470.187,0,512,41.813,512,93.867v324.267C512,470.187,470.187,512,418.133,512z"/>
<path d="M17.067,170.667c0-5.12-3.413-8.533-8.533-8.533S0,165.547,0,170.667c0,5.12,3.413,8.533,8.533,8.533
	S17.067,175.787,17.067,170.667"/>
<g>
</g>
<g>
</g>
<g>
</g>
<g>
</g>
<g>
</g>
<g>
</g>
<g>
</g>
<g>
</g>
<g>
</g>
<g>
</g>
<g>
</g>
<g>
</g>
<g>
</g>
<g>
</g>
<g>
</g>
</svg>
