<?xml version="1.0" encoding="iso-8859-1"?>
<!-- Generator: Adobe Illustrator 19.0.0, SVG Export Plug-In . SVG Version: 6.00 Build 0)  -->
<svg version="1.1" id="Capa_1" xmlns="http://www.w3.org/2000/svg" xmlns:xlink="http://www.w3.org/1999/xlink" x="0px" y="0px"
	 viewBox="0 0 512 512" style="enable-background:new 0 0 512 512;" xml:space="preserve">
<path style="fill:#AED45B;" d="M256,504.485C118.765,504.485,7.515,393.235,7.515,256S118.765,7.515,256,7.515L504.485,256
	C504.485,393.235,393.235,504.485,256,504.485z"/>
<path style="fill:#9AC932;" d="M256,55.609c12.419,0,24.571,1.138,36.366,3.301l160.725,160.725
	c2.162,11.794,3.301,23.947,3.301,36.366c0,110.673-89.718,200.391-200.391,200.391S55.61,366.674,55.61,256.001
	S145.327,55.609,256,55.609z"/>
<polygon style="fill:#EBF4D6;" points="95.687,320.125 256,440.36 416.313,320.125 360.204,320.125 360.204,127.75 151.796,127.75 
	151.796,320.125 "/>
<path style="fill:#9AC932;" d="M230.625,8.795c8.342-0.847,16.808-1.281,25.375-1.281L504.485,256
	c0,8.539-0.432,16.976-1.272,25.293c-26.462-12.034-52.044-19.133-77.059-26.07c-45.393-12.588-88.268-24.477-122.595-63.115
	c-37.099-41.761-46.202-82.436-55.005-121.771C243.901,49.552,239.4,29.457,230.625,8.795z"/>
<path style="fill:#7EBF3D;" d="M245.266,55.896c3.555-0.187,7.133-0.288,10.734-0.288c12.419,0,24.571,1.138,36.366,3.301
	l160.725,160.725c2.162,11.794,3.301,23.947,3.301,36.366c0,2.633-0.067,5.25-0.167,7.858c-10.125-3.101-20.143-5.883-30.071-8.636
	c-45.393-12.588-88.268-24.477-122.595-63.115c-37.099-41.761-46.202-82.436-55.005-121.771
	C247.467,65.491,246.39,60.683,245.266,55.896z"/>
<path style="fill:#D6EAAD;" d="M360.204,127.75V233.2c-20.493-9.352-39.621-21.931-56.646-41.092
	c-19.331-21.759-31.053-43.223-39.099-64.359H360.204z"/>
<path style="fill:#EBF4D6;" d="M256,7.515L504.485,256c-72.141-48.094-136.113-34.871-176.344-80.157
	C281.109,122.904,304.094,71.64,256,7.515z"/>
<path d="M511.971,255.419c-0.139-1.774-0.911-3.472-2.171-4.732L261.314,2.201C259.923,0.811,257.968,0,256,0
	C187.619,0,123.333,26.629,74.98,74.98C26.628,123.333,0,187.619,0,256s26.628,132.667,74.98,181.02
	C123.333,485.371,187.619,512,256,512s132.667-26.629,181.02-74.98C485.372,388.667,512,324.381,512,256
	C512,255.807,511.986,255.611,511.971,255.419z M333.759,170.853c-22.471-25.293-28.144-50.643-34.15-77.481
	c-3.062-13.681-6.337-28.292-12.075-43.695l176.412,176.412c-18.756-7.688-36.592-12.637-53.179-17.236
	C379.974,200.313,353.38,192.939,333.759,170.853z M256,496.971C123.128,496.971,15.029,388.872,15.029,256
	c0-131.611,106.052-238.91,237.19-240.934c21.004,29.233,26.96,55.834,32.724,81.587c1.782,7.965,3.539,15.806,5.676,23.581H151.796
	c-4.151,0-7.515,3.365-7.515,7.515v33.065c0,4.15,3.364,7.515,7.515,7.515s7.515-3.365,7.515-7.515v-25.55h136.052
	c5.514,15.172,13.524,30.222,27.16,45.57c9.109,10.253,19.198,17.656,30.165,23.446v115.845c0,4.15,3.364,7.515,7.515,7.515h33.567
	L256,430.967L118.231,327.64h33.566c4.151,0,7.515-3.365,7.515-7.515V195.883c0-4.15-3.364-7.515-7.515-7.515
	s-7.515,3.365-7.515,7.515v116.728H95.687c-3.176,0-6.133,2.127-7.131,5.144c-0.996,3.01,0.084,6.479,2.622,8.382l160.313,120.235
	c2.641,1.982,6.375,1.982,9.018,0l160.313-120.235c2.641-1.981,3.686-5.567,2.525-8.656c-1.088-2.898-3.939-4.871-7.034-4.871
	h-48.595V211.105c12.15,4.769,25.195,8.392,39.033,12.23c27.282,7.565,58.08,16.109,90.176,36.703
	C494.766,391.058,387.525,496.971,256,496.971z"/>
<path d="M202.592,317.423c2.896,2.895,7.732,2.895,10.628,0l96.188-96.188c2.935-2.935,2.935-7.693,0-10.627
	c-2.936-2.935-7.693-2.935-10.628,0l-96.188,96.188C199.658,309.73,199.658,314.489,202.592,317.423z"/>
<path d="M272.532,296.078c0,12.983,10.563,23.546,23.546,23.546s23.546-10.563,23.546-23.546s-10.563-23.546-23.546-23.546
	S272.532,283.095,272.532,296.078z M304.595,296.078c0,4.696-3.82,8.517-8.517,8.517c-4.696,0-8.517-3.82-8.517-8.517
	c0-4.696,3.82-8.517,8.517-8.517C300.774,287.562,304.595,291.382,304.595,296.078z"/>
<path d="M215.922,255.499c12.983,0,23.546-10.563,23.546-23.546s-10.563-23.546-23.546-23.546s-23.546,10.563-23.546,23.546
	S202.938,255.499,215.922,255.499z M215.922,223.436c4.696,0,8.517,3.82,8.517,8.517s-3.82,8.517-8.517,8.517
	s-8.517-3.82-8.517-8.517S211.226,223.436,215.922,223.436z"/>
<g>
</g>
<g>
</g>
<g>
</g>
<g>
</g>
<g>
</g>
<g>
</g>
<g>
</g>
<g>
</g>
<g>
</g>
<g>
</g>
<g>
</g>
<g>
</g>
<g>
</g>
<g>
</g>
<g>
</g>
</svg>
