<?xml version="1.0" encoding="iso-8859-1"?>
<!-- Generator: Adobe Illustrator 18.0.0, SVG Export Plug-In . SVG Version: 6.00 Build 0)  -->
<!DOCTYPE svg PUBLIC "-//W3C//DTD SVG 1.1//EN" "http://www.w3.org/Graphics/SVG/1.1/DTD/svg11.dtd">
<svg version="1.1" id="Capa_1" xmlns="http://www.w3.org/2000/svg" xmlns:xlink="http://www.w3.org/1999/xlink" x="0px" y="0px"
	 viewBox="0 0 135.714 135.714" style="enable-background:new 0 0 135.714 135.714;" xml:space="preserve">
<g>
	<path style="fill:#FFC0B3;" d="M58.125,116.256c-0.324,0.409-0.497,0.859-0.517,1.344c0.039-0.463,0.214-0.909,0.517-1.291
		l12.737-15.884l0.191-0.068l-0.191,0.043L58.125,116.256z"/>
	<path style="fill:#FFC0B3;" d="M73.255,99.973l0.163,0.016l0.147,0.207c-0.001-0.002,0.007-0.005,0.004-0.006l-0.072-0.225
		l-0.203-0.04c-0.016-0.006-0.032-0.059-0.047-0.063l-0.038-0.147l0.019,0.147C73.244,99.866,73.24,99.967,73.255,99.973z"/>
	<path style="fill:#FFC0B3;" d="M58.5,108.486c0-0.004,0-0.009,0-0.013c0,2.432-1.038,4.736-2.842,6.367
		C57.465,113.207,58.5,110.923,58.5,108.486z"/>
	<path style="fill:#FFC0B3;" d="M43.069,106.382c-0.436-0.502-0.635-1.119-0.604-1.72C42.434,105.264,42.632,105.882,43.069,106.382
		c0.865,0.95,2.411,1.026,3.347,0.171l1.046-0.945l-1.046,0.944C45.48,107.408,43.934,107.331,43.069,106.382z"/>
	<path style="fill:#FFC0B3;" d="M74.748,101.53c0.004,0.007-0.005,0.014-0.002,0.02c-0.003-0.028-0.032-0.045-0.033-0.048
		l-0.023,0.08c0.058,0.143-0.036,0.255-0.036,0.364c0-0.109,0.188-0.221,0.13-0.364l-0.024-0.08c0.001,0.003,0.006,0.021,0.01,0.048
		c-0.003-0.006-0.007-0.013-0.01-0.02l-0.033-0.148c-0.013-0.047-0.032-0.088-0.05-0.129c0.016,0.042,0.033,0.083,0.046,0.129
		L74.748,101.53z"/>
	<path style="fill:#FFC0B3;" d="M80.253,124.574c0.019,0,0.036-0.005,0.055-0.005c-0.991-0.029-1.641-0.732-1.948-1.738
		c-0.042-0.168,0.141-0.385,0.141-0.62c0,0.235-0.258,0.452-0.216,0.62C78.597,123.857,79.227,124.574,80.253,124.574z"/>
	<path style="fill:#FFC63F;" d="M67.857,6C34.024,6,6.5,33.524,6.5,67.357c0,14.785,5.257,28.365,14,38.97V93.419
		c-4.273-7.735-6.714-16.617-6.714-26.062c0-29.815,24.256-54.071,54.071-54.071c29.815,0,54.071,24.256,54.071,54.071
		c0,9.955-2.715,19.283-7.428,27.302v12.495c9.163-10.723,14.714-24.62,14.714-39.797C129.214,33.524,101.689,6,67.857,6z"/>
	<path style="fill:#586065;" d="M67.857,0C30.716,0,0.5,30.216,0.5,67.357c0,18.694,7.66,35.628,20,47.844v20.513h94v-19.832
		c12.753-12.263,20.714-29.477,20.714-48.524C135.214,30.216,104.998,0,67.857,0z M108.5,129.714h-82v-35h82V129.714z
		 M110.906,88.714H24.808c-3.208-6.439-5.022-13.688-5.022-21.357c0-26.506,21.565-48.071,48.071-48.071
		c26.506,0,48.071,21.564,48.071,48.071C115.928,75.025,114.113,82.275,110.906,88.714z M114.5,107.154V94.659
		c4.712-8.02,7.428-17.348,7.428-27.302c0-29.815-24.256-54.071-54.071-54.071c-29.815,0-54.071,24.256-54.071,54.071
		c0,9.445,2.44,18.327,6.714,26.062v12.908c-8.743-10.605-14-24.185-14-38.97C6.5,33.524,34.024,6,67.857,6
		c33.833,0,61.357,27.524,61.357,61.357C129.214,82.534,123.663,96.431,114.5,107.154z"/>
	<path style="fill:#FFFFFF;" d="M67.857,19.286c-26.506,0-48.071,21.564-48.071,48.071c0,7.668,1.814,14.918,5.022,21.357h86.098
		c3.207-6.439,5.022-13.688,5.022-21.357C115.928,40.851,94.363,19.286,67.857,19.286z M97.274,43.549L76.228,64.074
		c0.401,1.018,0.629,2.123,0.629,3.283c0,4.962-4.038,9-9,9c-4.962,0-9-4.038-9-9c0-1.202,0.241-2.347,0.67-3.397L46.391,50.823
		c-1.172-1.171-1.172-3.071,0-4.242c1.171-1.172,3.071-1.172,4.242,0l12.892,12.892c1.286-0.709,2.762-1.116,4.332-1.116
		c1.612,0,3.123,0.432,4.433,1.177l20.795-20.281c1.187-1.156,3.085-1.132,4.243,0.053C98.484,40.493,98.46,42.392,97.274,43.549z"
		/>
	<path style="fill:#586065;" d="M93.085,39.253L72.29,59.534c-1.31-0.745-2.821-1.177-4.433-1.177c-1.57,0-3.046,0.406-4.332,1.116
		L50.633,46.581c-1.171-1.172-3.071-1.172-4.242,0c-1.172,1.171-1.172,3.071,0,4.242L59.527,63.96
		c-0.429,1.049-0.67,2.195-0.67,3.397c0,4.962,4.038,9,9,9c4.962,0,9-4.038,9-9c0-1.159-0.228-2.264-0.629-3.283l21.046-20.525
		c1.186-1.157,1.21-3.056,0.053-4.243C96.17,38.121,94.272,38.097,93.085,39.253z M67.857,70.357c-1.654,0-3-1.346-3-3
		c0-1.654,1.346-3,3-3c1.654,0,3,1.346,3,3C70.857,69.011,69.511,70.357,67.857,70.357z"/>
	<circle style="fill:#FFC0B3;" cx="67.857" cy="67.357" r="3"/>
	<path style="fill:#FFC0B3;" d="M26.5,129.714h82v-35h-82V129.714z M78.5,122.211v-19.994c0-1.303,0.68-2.363,1.983-2.363
		c1.345,0,2.017,1.038,2.017,2.363v5.101c1-0.457,2.096-0.687,3.119-0.687c4.35,0,7.881,3.553,7.881,7.921v7.659
		c0,1.326-0.674,2.364-2,2.364s-2-1.038-2-2.364v-7.659c0-1.713-1.778-3.131-3.525-3.16c-1.711,0.029-3.475,1.421-3.475,3.169v7.65
		c0,1.326-0.787,2.364-2.132,2.364c-0.021,0-0.04-0.005-0.061-0.005c-0.019,0-0.036,0.005-0.055,0.005
		c-1.026,0-1.656-0.717-1.969-1.744C78.242,122.663,78.5,122.445,78.5,122.211z M71.067,100.351c0.011-0.018,0.063-0.06,0.116-0.096
		l0.124-0.087c0.041-0.022,0.09-0.059,0.152-0.081c0.079-0.068,0.163-0.124,0.239-0.144c0.061-0.026,0.116-0.074,0.158-0.084
		l0.144-0.145h0.9h0.105h0.205l0.038,0.147c0.015,0.005,0.031,0.058,0.047,0.063l0.203,0.04l0.072,0.225
		c0.003,0.001-0.005,0.004-0.004,0.006l0.004,0.006c0.034,0.019-0.07,0.038-0.07,0.057v0.003c0,0.017,0.248,0.041,0.286,0.069
		c0.09,0.046,0.331,0.114,0.388,0.199l0.025,0.026c0.092,0.092,0.131,0.145,0.168,0.2c0.04,0.042,0.096,0.102,0.185,0.236
		l0.097,0.188c0.014,0.028,0.018,0.05,0.026,0.074c0.018,0.042,0.037,0.083,0.05,0.129l0.033,0.148
		c0.003,0.007,0.007,0.014,0.01,0.02c-0.003-0.028-0.009-0.045-0.01-0.048l0.024,0.08c0.058,0.143-0.13,0.255-0.13,0.364
		c0.008-0.033-0.153,0.055-0.153,0.17v13.297c2,0.082,2.236,1.108,2.236,2.358c0,1.272-0.236,2.279-2.236,2.359v2.081
		c0,1.326-0.674,2.364-2,2.364s-2-1.038-2-2.364v-2.497H60.042c-0.661,0-1.161,0.03-1.555-0.325
		c-0.471-0.355-0.792-0.694-0.869-1.307c-0.021-0.162-0.022-0.323-0.009-0.482c0.02-0.484,0.193-0.935,0.517-1.344l12.737-15.857
		l0.191-0.043L71.067,100.351z M52.958,105.869c-0.724-0.808-1.747-1.254-2.877-1.254c-0.961,0-1.89,0.353-2.618,0.994l-1.046,0.945
		c-0.936,0.855-2.482,0.779-3.347-0.17c-0.436-0.501-0.635-1.119-0.604-1.721c0.03-0.603,0.29-1.189,0.772-1.629l1.052-0.952
		c1.538-1.436,3.597-2.233,5.791-2.233c2.437,0,4.664,1.03,6.296,2.836c1.436,1.539,2.124,3.586,2.124,5.779
		c0,0.004,0,0.007,0,0.011c0,0.004,0,0.009,0,0.013c0,2.437-0.929,4.721-2.735,6.354l-5.335,4.874h5.92
		c1.326,0,2.364,1.172,2.364,2.517c0,1.326-1.038,2.483-2.364,2.483H44.353c-0.766,0-1.429-0.365-1.841-0.86
		c-0.866-0.948-0.811-2.486,0.141-3.394l10.041-9.091c0.824-0.739,1.258-1.735,1.258-2.882
		C53.951,107.512,53.607,106.607,52.958,105.869z"/>
	<polygon style="fill:#FFC0B3;" points="70.5,115.714 70.5,108.955 64.949,115.714 	"/>
	<path style="fill:#586065;" d="M42.652,120.46c-0.952,0.909-1.007,2.446-0.141,3.394c0.412,0.495,1.075,0.86,1.841,0.86h11.996
		c1.326,0,2.364-1.157,2.364-2.483c0-1.345-1.038-2.517-2.364-2.517h-5.92l5.335-4.874c1.804-1.63,2.735-3.935,2.735-6.367
		c0-0.004,0-0.007,0-0.011c0-2.193-0.688-4.24-2.124-5.779c-1.632-1.806-3.913-2.836-6.35-2.836c-2.194,0-4.226,0.797-5.764,2.233
		l-1.039,0.952c-0.482,0.44-0.736,1.027-0.766,1.629c-0.03,0.602,0.172,1.219,0.608,1.72c0.865,0.949,2.413,1.025,3.349,0.17
		l1.047-0.944c0.728-0.641,1.658-0.994,2.618-0.994c1.131,0,2.154,0.446,2.878,1.254c0.65,0.738,0.994,1.644,0.994,2.618
		c0,1.147-0.435,2.144-1.258,2.882L42.652,120.46z"/>
	<path style="fill:#586065;" d="M58.125,116.309c-0.302,0.382-0.478,0.828-0.517,1.291c-0.013,0.159-0.011,0.32,0.009,0.482
		c0.078,0.613,0.398,0.952,0.869,1.307c0.394,0.355,0.895,0.325,1.555,0.325H70.5v2.497c0,1.326,0.674,2.364,2,2.364
		s2-1.038,2-2.364v-2.081c2-0.08,2.236-1.087,2.236-2.359c0-1.25-0.236-2.276-2.236-2.358v-13.297c0-0.115,0.161-0.203,0.153-0.17
		c0-0.109,0.094-0.221,0.036-0.364l0.023-0.08c0.001,0.003,0.03,0.021,0.033,0.048c-0.003-0.006,0.006-0.013,0.002-0.02
		l-0.026-0.148c-0.013-0.047-0.031-0.088-0.046-0.129c-0.009-0.024-0.012-0.046-0.026-0.074l-0.097-0.188
		c-0.089-0.134-0.145-0.193-0.185-0.236c-0.037-0.055-0.077-0.108-0.168-0.2l-0.025-0.026c-0.058-0.085-0.298-0.152-0.388-0.199
		c-0.038-0.028-0.286-0.052-0.286-0.069v-0.003c0-0.019,0.104-0.038,0.07-0.057l-0.004-0.006l-0.147-0.207l-0.163-0.016
		c-0.016-0.006-0.012-0.106-0.027-0.111l-0.019-0.147h-0.205H72.9h-0.9l-0.144,0.145c-0.042,0.01-0.097,0.058-0.158,0.084
		c-0.076,0.021-0.16,0.076-0.239,0.144c-0.062,0.023-0.111,0.059-0.152,0.081l-0.124,0.087c-0.054,0.036-0.105,0.077-0.116,0.096
		l-0.015,0.005l-0.191,0.068L58.125,116.309z M70.5,115.714h-5.551l5.551-6.759V115.714z"/>
	<path style="fill:#586065;" d="M80.308,124.569c0.021,0,0.04,0.005,0.061,0.005c1.345,0,2.132-1.038,2.132-2.364v-7.65
		c0-1.748,1.764-3.14,3.475-3.169c1.747,0.029,3.525,1.446,3.525,3.16v7.659c0,1.326,0.674,2.364,2,2.364s2-1.038,2-2.364v-7.659
		c0-4.368-3.531-7.921-7.881-7.921c-1.023,0-2.119,0.23-3.119,0.687v-5.101c0-1.325-0.672-2.363-2.017-2.363
		c-1.303,0-1.983,1.06-1.983,2.363v19.994c0,0.235-0.183,0.452-0.141,0.62C78.666,123.837,79.317,124.54,80.308,124.569z"/>
</g>
<g>
</g>
<g>
</g>
<g>
</g>
<g>
</g>
<g>
</g>
<g>
</g>
<g>
</g>
<g>
</g>
<g>
</g>
<g>
</g>
<g>
</g>
<g>
</g>
<g>
</g>
<g>
</g>
<g>
</g>
</svg>
