<?xml version="1.0" encoding="iso-8859-1"?>
<!-- Generator: Adobe Illustrator 19.0.0, SVG Export Plug-In . SVG Version: 6.00 Build 0)  -->
<svg version="1.1" id="Capa_1" xmlns="http://www.w3.org/2000/svg" xmlns:xlink="http://www.w3.org/1999/xlink" x="0px" y="0px"
	 viewBox="0 0 512.005 512.005" style="enable-background:new 0 0 512.005 512.005;" xml:space="preserve">
<path style="fill:#303C42;" d="M398.221,64.609l-181.333-64c-2.292-0.812-4.813-0.812-7.104,0l-181.333,64
	c-4.26,1.51-7.115,5.542-7.115,10.063v128c0,165.646,24.563,226.188,187.198,308.188c1.51,0.76,3.156,1.146,4.802,1.146
	c1.646,0,3.292-0.385,4.802-1.146c162.635-82,187.198-142.542,187.198-308.188v-128C405.336,70.151,402.482,66.12,398.221,64.609z"
	/>
<path style="fill:#1E88E5;" d="M213.336,21.984L42.669,82.224v120.448c0,19.303,0.318,36.962,1.115,53.328h169.552V21.984z"/>
<path style="fill:#01579B;" d="M382.888,256c0.797-16.366,1.115-34.025,1.115-53.328V82.224l-170.667-60.24V256H382.888z"/>
<path style="fill:#1E88E5;" d="M213.336,256v233.38C345.47,422.014,377.134,374.145,382.888,256H213.336z"/>
<path style="fill:#01579B;" d="M43.784,256c5.754,118.145,37.418,166.014,169.552,233.38V256H43.784z"/>
<path style="opacity:0.1;enable-background:new    ;" d="M213.336,448C62.898,371.302,42.669,341.286,42.669,182.63v20.042
	c0,158.656,20.229,210.01,170.667,286.708c150.438-76.698,170.667-128.052,170.667-286.708V182.63
	C384.003,341.286,363.773,371.302,213.336,448z"/>
<circle style="fill:#303C42;" cx="373.336" cy="394.669" r="117.333"/>
<circle style="fill:#7CB342;" cx="373.336" cy="394.669" r="96"/>
<path style="fill:#303C42;" d="M419.128,355.125l-67.125,67.125l-24.458-24.458c-4.167-4.167-10.917-4.167-15.083,0
	c-4.167,4.167-4.167,10.917,0,15.083l32,32c2.083,2.083,4.813,3.125,7.542,3.125c2.729,0,5.458-1.042,7.542-3.125l74.667-74.667
	c4.167-4.167,4.167-10.917,0-15.083C430.044,350.958,423.294,350.958,419.128,355.125z"/>
<linearGradient id="SVGID_1_" gradientUnits="userSpaceOnUse" x1="-47.2066" y1="639.8679" x2="-22.8815" y2="628.5249" gradientTransform="matrix(21.3333 0 0 -21.3333 996.2804 13791.7256)">
	<stop  offset="0" style="stop-color:#FFFFFF;stop-opacity:0.2"/>
	<stop  offset="1" style="stop-color:#FFFFFF;stop-opacity:0"/>
</linearGradient>
<path style="fill:url(#SVGID_1_);" d="M402.344,281.111c2.155-23.384,2.992-49.202,2.992-78.439v-128
	c0-4.521-2.854-8.552-7.115-10.063l-181.333-64c-2.292-0.812-4.813-0.812-7.104,0l-181.333,64c-4.26,1.51-7.115,5.542-7.115,10.063
	v128c0,165.646,24.563,226.188,187.198,308.188c1.51,0.76,3.156,1.146,4.802,1.146c1.646,0,3.292-0.385,4.802-1.146
	c26.072-13.146,48.25-25.736,67.693-38.299c21.505,24.132,52.714,39.44,87.505,39.44c64.698,0,117.333-52.635,117.333-117.333
	C490.669,339.996,453.031,294.074,402.344,281.111z"/>
<g>
</g>
<g>
</g>
<g>
</g>
<g>
</g>
<g>
</g>
<g>
</g>
<g>
</g>
<g>
</g>
<g>
</g>
<g>
</g>
<g>
</g>
<g>
</g>
<g>
</g>
<g>
</g>
<g>
</g>
</svg>
